<?xml version="1.0" encoding="UTF-8"?>
<svg id="Ebene_1" data-name="Ebene 1" xmlns="http://www.w3.org/2000/svg" version="1.1" xmlns:xlink="http://www.w3.org/1999/xlink" viewBox="0 0 1920 986">
  <defs>
    <style>
      .cls-1 {
        opacity: .6;
      }

      .cls-1, .cls-2, .cls-3, .cls-4 {
        stroke-width: 0px;
      }

      .cls-1, .cls-3 {
        fill: #172d4d;
      }

      .cls-2 {
        fill: none;
      }

      .cls-4 {
        fill: #eee;
        fill-rule: evenodd;
      }
    </style>
  </defs>
  <image width="1917" height="985" transform="translate(0 1)" xlink:href="../Screenshots_Autorentool/Softwarekomponenten/ManualAuthoringStartseite2.png"/>
  <path class="cls-1" d="M-1,0v986h1921V0H-1ZM402,238c0,8.3-6.7,15-15,15h-15c-8.3,0-15-6.7-15-15v-23c0-8.3,6.7-15,15-15h15c8.3,0,15,6.7,15,15v23Z"/>
  <g>
    <rect id="PfeilDokumentation" class="cls-2" x="377" y="110" width="180" height="62.7" transform="translate(13 320) rotate(-38.3)"/>
    <g>
      <path class="cls-4" d="M542,99.7l-17.2-21.8-108.8,86-5.7-7.2-11.1,38.2,39.7-1.9-5.7-7.2,108.9-86h0Z"/>
      <path class="cls-3" d="M438.9,194.6l-39.7,1.9c-.5,0-1-.2-1.3-.6s-.4-.9-.3-1.4l11-38.2c.2-.6.6-1,1.2-1.1.6-.1,1.2.1,1.6.6l4.7,6,107.6-85.1c.7-.5,1.7-.4,2.2.3l17.2,21.8c.5.7.4,1.7-.3,2.2l-107.6,85.1,4.7,6c.4.5.5,1.1.2,1.6-.1.2-.3.4-.5.6s-.6.3-.9.3ZM524.5,80.2l-107.6,85.1c-.7.5-1.7.4-2.2-.3l-3.8-4.8-9.5,33.1,34.4-1.6-3.8-4.8c-.5-.7-.4-1.7.3-2.2l107.6-85.1-15.2-19.3Z"/>
    </g>
  </g>
</svg>