<?xml version="1.0" encoding="UTF-8"?>
<svg id="Ebene_1" data-name="Ebene 1" xmlns="http://www.w3.org/2000/svg" version="1.1" xmlns:xlink="http://www.w3.org/1999/xlink" viewBox="0 0 1920 986">
  <defs>
    <style>
      .cls-1 {
        opacity: .6;
      }

      .cls-1, .cls-2, .cls-3, .cls-4 {
        stroke-width: 0px;
      }

      .cls-1, .cls-3 {
        fill: #172d4d;
      }

      .cls-2 {
        fill: none;
      }

      .cls-4 {
        fill: #eee;
        fill-rule: evenodd;
      }
    </style>
  </defs>
  <image width="1915" height="984" transform="" xlink:href="../Screenshots_Autorentool/Bedienung/ManualAuthoringLernweltImportierenDateimanager.png"/>
  <path class="cls-1" d="M0,0v986h1920V0H0ZM1465,865c0,8.3-6.7,15-15,15H412c-8.3,0-15-6.7-15-15V74c0-8.3,6.7-15,15-15h1038c8.3,0,15,6.7,15,15v791Z"/>
  <g>
    <rect id="PfeilDokumentation" class="cls-2" x="823.4" y="255.3" width="62.7" height="180" transform="translate(10.8 716.3) rotate(-45.7)"/>
    <g>
      <path class="cls-4" d="M925.1,394.5l-19.4,19.9-99.3-96.8-6.4,6.6-7.1-39.2,39.2,6-6.4,6.6,99.3,96.9h0Z"/>
      <path class="cls-3" d="M833.3,289.9c.2.2.3.4.4.6.2.6,0,1.2-.4,1.6l-5.3,5.5,98.2,95.7c.6.6.6,1.6,0,2.3l-19.4,19.9c-.6.6-1.6.6-2.3,0l-98.2-95.7-5.3,5.5c-.4.4-1,.6-1.6.4-.6-.2-1-.7-1.1-1.2l-7-39.1c0-.5,0-1,.4-1.4s.9-.5,1.4-.5l39.3,6c.3,0,.6.2.9.4ZM922.8,394.5l-98.2-95.7c-.6-.6-.6-1.6,0-2.3l4.3-4.4-34-5.2,6.1,33.9,4.3-4.4c.6-.6,1.6-.6,2.3,0l98.2,95.7,17.1-17.6Z"/>
    </g>
  </g>
</svg>