<?xml version="1.0" encoding="utf-8"?>
<!-- Generator: Adobe Illustrator 27.9.4, SVG Export Plug-In . SVG Version: 9.03 Build 54784)  -->
<svg version="1.1" id="Ebene_1" xmlns="http://www.w3.org/2000/svg" xmlns:xlink="http://www.w3.org/1999/xlink" x="0px" y="0px"
	 viewBox="0 0 1920 986" style="enable-background:new 0 0 1920 986;" xml:space="preserve">
<style type="text/css">
	.st0{opacity:0.6;fill:#172D4D;}
	.st1{fill:none;}
	.st2{fill-rule:evenodd;clip-rule:evenodd;fill:#EEEEEE;}
	.st3{fill:#172D4D;}
</style>
<image style="overflow:visible;" width="1915" height="984" xlink:href="../../Screenshots_Autorentool/Softwarekomponenten/ManualAuthoringArbeitsflächeLernraumEditor2.png"  transform="matrix(1.0026 0 0 1.002 0 0)">
</image>
<path class="st0" d="M0,0v986h1920V0H0z M1671,511c-7.2,0-13-5.8-13-13c0-7.2,5.8-13,13-13s13,5.8,13,13
	C1684,505.2,1678.2,511,1671,511z"/>
<g>
	
		<rect id="PfeilDokumentation_00000143603088087578068750000000498143742170253734_" x="1559.6" y="343.8" transform="matrix(0.6415 -0.7672 0.7672 0.6415 237.6299 1376.0166)" class="st1" width="62.7" height="180"/>
	<g>
		<path class="st2" d="M1517.1,390.1l17.8-21.3l106.4,88.9l5.9-7l10,38.5l-39.6-3l5.9-7.1L1517.1,390.1L1517.1,390.1z"/>
		<path class="st3" d="M1616.6,487.4c-0.2-0.2-0.3-0.4-0.4-0.6c-0.2-0.6-0.1-1.2,0.2-1.6l4.9-5.9l-105.2-88
			c-0.7-0.6-0.8-1.6-0.2-2.2l17.8-21.3c0.6-0.7,1.6-0.8,2.2-0.2l105.2,88l4.9-5.9c0.4-0.5,1-0.7,1.6-0.5c0.6,0.1,1,0.6,1.2,1.2
			l10,38.5c0.1,0.5,0,1-0.3,1.4c-0.3,0.4-0.8,0.6-1.3,0.6l-39.6-3C1617.1,487.8,1616.8,487.6,1616.6,487.4z M1519.3,389.9l105.2,88
			c0.7,0.6,0.8,1.6,0.2,2.2l-3.9,4.7l34.3,2.6l-8.6-33.3l-3.9,4.7c-0.6,0.7-1.6,0.8-2.2,0.2l-105.2-88L1519.3,389.9z"/>
	</g>
</g>
</svg>
