<?xml version="1.0" encoding="UTF-8"?>
<svg id="Ebene_1" data-name="Ebene 1" xmlns="http://www.w3.org/2000/svg" version="1.1" xmlns:xlink="http://www.w3.org/1999/xlink" viewBox="0 0 1920 986">
  <defs>
    <style>
      .cls-1 {
        opacity: .6;
      }

      .cls-1, .cls-2, .cls-3, .cls-4 {
        stroke-width: 0px;
      }

      .cls-1, .cls-3 {
        fill: #172d4d;
      }

      .cls-2 {
        fill: none;
      }

      .cls-4 {
        fill: #eee;
        fill-rule: evenodd;
      }
    </style>
  </defs>
  <image width="1919" height="983" transform="" xlink:href="../../Screenshots_Autorentool/Softwarekomponenten/ManualAuthoringArbeitsfläche2.png"/>
  <path class="cls-1" d="M35,0c8.3,0,15,6.7,15,15v14c0,8.3-6.7,15-15,15h-18c-8.3,0-15-6.7-15-15v-14C2,6.7,8.7,0,17,0H0v986h1920V0H35Z"/>
  <g>
    <rect id="PfeilDokumentation" class="cls-2" x="73.3" y="32.4" width="62.7" height="180" transform="translate(-49.8 76.9) rotate(-33.1)"/>
    <g>
      <path class="cls-4" d="M162.5,185.9l-23.3,15.1L63.6,84.8l-7.7,5,1.7-39.8,37,14.5-7.7,5,75.7,116.3h0Z"/>
      <path class="cls-3" d="M95.9,63.7c.1.2.2.4.2.7,0,.6-.2,1.2-.7,1.5l-6.4,4.2,74.8,115c.5.7.3,1.7-.5,2.2l-23.3,15.1c-.7.5-1.7.3-2.2-.5L63.1,86.9l-6.4,4.2c-.5.3-1.1.3-1.7,0-.5-.3-.8-.9-.8-1.5l1.7-39.7c0-.5.3-1,.7-1.3s1-.3,1.4-.1l37,14.5c.3.1.6.3.8.6ZM160.3,185.4l-74.8-115c-.5-.7-.3-1.7.5-2.2l5.2-3.4-32-12.5-1.5,34.4,5.2-3.4c.7-.5,1.7-.3,2.2.5l74.8,115,20.6-13.4Z"/>
    </g>
  </g>
</svg>