<?xml version="1.0" encoding="UTF-8"?>
<svg id="Ebene_1" data-name="Ebene 1" xmlns="http://www.w3.org/2000/svg" version="1.1" xmlns:xlink="http://www.w3.org/1999/xlink" viewBox="0 0 1920 986">
  <defs>
    <style>
      .cls-1 {
        opacity: .6;
      }

      .cls-1, .cls-2, .cls-3, .cls-4 {
        stroke-width: 0px;
      }

      .cls-1, .cls-3 {
        fill: #172d4d;
      }

      .cls-2 {
        fill: none;
      }

      .cls-4 {
        fill: #eee;
        fill-rule: evenodd;
      }
    </style>
  </defs>
  <image width="1917" height="985" transform="" xlink:href="../../Screenshots_Autorentool/Bedienung/ManualAuthoringUnplatzierteElementeZiehen.png"/>
  <path class="cls-1" d="M0,0v986h1920V0H0ZM1204,918c0,8.3-6.7,15-15,15h-93c-8.3,0-15-6.7-15-15v-57c0-8.3,6.7-15,15-15h93c8.3,0,15,6.7,15,15v57ZM1234,678c0,8.3-6.7,15-15,15h-95c-8.3,0-15-6.7-15-15v-40c0-8.3,6.7-15,15-15h95c8.3,0,15,6.7,15,15v40Z"/>
  <g>
    <rect id="PfeilDokumentation" class="cls-2" x="1084.4" y="741" width="147.3" height="51.3" transform="translate(207.1 1778.9) rotate(-80.3)"/>
    <g>
      <path class="cls-4" d="M1157.5,836.9l-22.4-3.8,19.1-111.8-7.4-1.3,23.1-22.9,14.2,29.2-7.4-1.3-19.1,111.9h0Z"/>
      <path class="cls-3" d="M1185.4,726.5c0,.2-.1.4-.2.6-.3.4-.8.6-1.3.5l-6.2-1.1-18.9,110.6c-.1.7-.8,1.2-1.5,1.1l-22.4-3.8c-.7-.1-1.2-.8-1.1-1.5l18.9-110.6-6.2-1.1c-.5,0-.9-.4-1-.9-.1-.5,0-1,.3-1.3l23.1-22.9c.3-.3.7-.4,1.1-.4s.8.3,1,.7l14.2,29.2c.1.2.2.5.1.8ZM1156.4,835.4l18.9-110.6c.1-.7.8-1.2,1.5-1.1l5,.8-12.3-25.3-20,19.8,5,.8c.7.1,1.2.8,1.1,1.5l-18.9,110.6,19.8,3.4Z"/>
    </g>
  </g>
</svg>