<?xml version="1.0" encoding="UTF-8"?>
<svg id="Ebene_1" data-name="Ebene 1" xmlns="http://www.w3.org/2000/svg" version="1.1" xmlns:xlink="http://www.w3.org/1999/xlink" viewBox="0 0 1920 986">
  <defs>
    <style>
      .cls-1 {
        opacity: .6;
      }

      .cls-1, .cls-2, .cls-3, .cls-4 {
        stroke-width: 0px;
      }

      .cls-1, .cls-3 {
        fill: #172d4d;
      }

      .cls-2 {
        fill: none;
      }

      .cls-4 {
        fill: #eee;
        fill-rule: evenodd;
      }
    </style>
  </defs>
  <image width="1916" height="984" transform="" xlink:href="../../Screenshots_Autorentool/Bedienung/ManualAuthoringLernweltSpeichernMeldung.png"/>
  <path class="cls-1" d="M0,0v986h1920V0H0ZM105,30c0,8.3-6.7,15-15,15h-20c-8.3,0-15-6.7-15-15v-14c0-8.3,6.7-15,15-15h20c8.3,0,15,6.7,15,15v14ZM1911,88c0,8.3-6.7,15-15,15h-391c-8.3,0-15-6.7-15-15v-48c0-8.3,6.7-15,15-15h391c8.3,0,15,6.7,15,15v48Z"/>
  <g>
    <rect id="PfeilDokumentation" class="cls-2" x="1343.9" y="139.4" width="180" height="62.7" transform="translate(296 1059.8) rotate(-44.8)"/>
    <g>
      <path class="cls-4" d="M1383.6,240.2l-19.6-19.7,98.4-97.7-6.5-6.5,39.3-6.4-6.7,39.1-6.5-6.6-98.5,97.8h0Z"/>
      <path class="cls-3" d="M1489.7,150.2c-.2.2-.4.3-.6.4-.6.2-1.2,0-1.6-.4l-5.4-5.4-97.3,96.6c-.6.6-1.6.6-2.3,0l-19.6-19.7c-.6-.6-.6-1.6,0-2.3l97.3-96.6-5.4-5.4c-.4-.4-.6-1.1-.4-1.6.2-.6.7-1,1.3-1.1l39.2-6.4c.5,0,1,0,1.4.5s.5.9.4,1.4l-6.6,39.2c0,.3-.2.6-.4.9ZM1383.6,238l97.3-96.6c.6-.6,1.6-.6,2.3,0l4.3,4.4,5.7-33.9-34,5.5,4.3,4.4c.6.6.6,1.6,0,2.3l-97.3,96.6,17.3,17.4Z"/>
    </g>
  </g>
</svg>