<?xml version="1.0" encoding="UTF-8"?>
<svg id="Ebene_1" data-name="Ebene 1" xmlns="http://www.w3.org/2000/svg" version="1.1" xmlns:xlink="http://www.w3.org/1999/xlink" viewBox="0 0 1920 986">
  <defs>
    <style>
      .cls-1 {
        opacity: .6;
      }

      .cls-1, .cls-2, .cls-3, .cls-4 {
        stroke-width: 0px;
      }

      .cls-1, .cls-3 {
        fill: #172d4d;
      }

      .cls-2 {
        fill: none;
      }

      .cls-4 {
        fill: #eee;
        fill-rule: evenodd;
      }
    </style>
  </defs>
  <image width="1916" height="985" transform="" xlink:href="../../Screenshots_Autorentool/Bedienung/ManualAuthoringNeueLernweltOffen.png"/>
  <path class="cls-1" d="M0,0v318c0-8.3,6.7-15,15-15h23c8.3,0,15,6.7,15,15v21c0,8.3-6.7,15-15,15H15c-8.3,0-15-6.7-15-15v647h1920V0H0Z"/>
  <g>
    <rect id="PfeilDokumentation" class="cls-2" x="56.3" y="270.6" width="180" height="62.7" transform="translate(-90.8 64.6) rotate(-19.1)"/>
    <g>
      <path class="cls-4" d="M221.8,261.1l9.1,26.2-131,45.4,3,8.7-38.2-11.2,23-32.4,3,8.7,131.1-45.5h0Z"/>
      <path class="cls-3" d="M87.1,296.3c.2,0,.5-.1.7,0,.6,0,1.1.5,1.3,1.1l2.5,7.2,129.6-44.9c.8-.3,1.7.2,2,1l9.1,26.2c.3.8-.2,1.7-1,2l-129.6,44.9,2.5,7.2c.2.6,0,1.2-.4,1.6-.4.4-1,.6-1.6.4l-38.1-11.3c-.5-.1-.9-.5-1.1-1s0-1,.2-1.4l23-32.4c.2-.3.5-.5.8-.6ZM220.8,263.1l-129.6,44.9c-.8.3-1.7-.2-2-1l-2-5.8-19.9,28.1,33,9.8-2-5.8c-.3-.8.2-1.7,1-2l129.6-44.9-8-23.2Z"/>
    </g>
  </g>
</svg>