<?xml version="1.0" encoding="UTF-8"?>
<svg id="Ebene_1" data-name="Ebene 1" xmlns="http://www.w3.org/2000/svg" version="1.1" xmlns:xlink="http://www.w3.org/1999/xlink" viewBox="0 0 1920 986">
  <defs>
    <style>
      .cls-1 {
        opacity: .6;
      }

      .cls-1, .cls-2, .cls-3, .cls-4 {
        stroke-width: 0px;
      }

      .cls-1, .cls-3 {
        fill: #172d4d;
      }

      .cls-2 {
        fill: none;
      }

      .cls-4 {
        fill: #eee;
        fill-rule: evenodd;
      }
    </style>
  </defs>
  <image width="1918" height="985" transform="" xlink:href="../../Screenshots_Autorentool/Bedienung/ManualAuthoringLernweltLoeschenButton.png"/>
  <path class="cls-1" d="M0,0v986h1920V0H0ZM577,436c0,8.3-6.7,15-15,15h-237c-8.3,0-15-6.7-15-15v-162c0-8.3,6.7-15,15-15h237c8.3,0,15,6.7,15,15v162Z"/>
  <g>
    <rect id="PfeilDokumentation" class="cls-2" x="417.6" y="144.8" width="62.7" height="180" transform="translate(-14.2 440.2) rotate(-51.5)"/>
    <g>
      <path class="cls-4" d="M374,193l17.3-21.7,108.6,86.2,5.7-7.2,11,38.2-39.7-2,5.7-7.2-108.6-86.3h0Z"/>
      <path class="cls-3" d="M475.9,287.8c-.2-.2-.4-.4-.5-.6-.2-.5-.2-1.2.2-1.6l4.8-6-107.4-85.3c-.7-.5-.8-1.6-.3-2.2l17.3-21.7c.5-.7,1.6-.8,2.2-.3l107.4,85.3,4.8-6c.4-.5,1-.7,1.6-.6.6.1,1.1.6,1.2,1.1l10.9,38.2c.1.5,0,1-.3,1.4s-.8.6-1.3.6l-39.7-2c-.3,0-.7-.1-.9-.3ZM376.3,192.7l107.4,85.3c.7.5.8,1.6.3,2.2l-3.8,4.8,34.4,1.7-9.5-33.1-3.8,4.8c-.5.7-1.6.8-2.2.3l-107.4-85.3-15.3,19.2Z"/>
    </g>
  </g>
</svg>