<?xml version="1.0" encoding="UTF-8"?>
<svg id="Ebene_1" data-name="Ebene 1" xmlns="http://www.w3.org/2000/svg" version="1.1" xmlns:xlink="http://www.w3.org/1999/xlink" viewBox="0 0 1920 986">
  <defs>
    <style>
      .cls-1 {
        opacity: .6;
      }

      .cls-1, .cls-2, .cls-3, .cls-4 {
        stroke-width: 0px;
      }

      .cls-1, .cls-3 {
        fill: #172d4d;
      }

      .cls-2 {
        fill: none;
      }

      .cls-4 {
        fill: #eee;
        fill-rule: evenodd;
      }
    </style>
  </defs>
  <image width="1919" height="983" transform="translate(0 1)" xlink:href="../../Screenshots_Autorentool/Softwarekomponenten/ManualAuthoringArbeitsfläche2.png"/>
  <path class="cls-1" d="M1628,0c8.3,0,15,6.7,15,15v18c0,8.3-6.7,15-15,15h-147c-8.3,0-15-6.7-15-15V15c0-8.3,6.7-15,15-15H0v986h1920V0h-292Z"/>
  <g>
    <rect id="PfeilDokumentation" class="cls-2" x="1298" y="61" width="180" height="62.7" transform="translate(174.3 772.1) rotate(-33.1)"/>
    <g>
      <path class="cls-4" d="M1324.6,150.1l-15.1-23.3,116.2-75.6-5-7.7,39.8,1.7-14.5,37-5-7.7-116.3,75.7h0Z"/>
      <path class="cls-3" d="M1446.8,83.5c-.2.1-.4.2-.7.2-.6,0-1.2-.2-1.5-.7l-4.2-6.4-115,74.8c-.7.5-1.7.3-2.2-.5l-15.1-23.3c-.5-.7-.3-1.7.5-2.2l115-74.8-4.2-6.4c-.3-.5-.3-1.1,0-1.7.3-.5.9-.8,1.5-.8l39.7,1.7c.5,0,1,.3,1.3.7s.3,1,.1,1.4l-14.5,37c-.1.3-.3.6-.6.8ZM1325.1,147.9l115-74.8c.7-.5,1.7-.3,2.2.5l3.4,5.2,12.5-32-34.4-1.5,3.4,5.2c.5.7.3,1.7-.5,2.2l-115,74.8,13.4,20.6Z"/>
    </g>
  </g>
</svg>