<?xml version="1.0" encoding="UTF-8"?>
<svg id="Ebene_1" data-name="Ebene 1" xmlns="http://www.w3.org/2000/svg" version="1.1" xmlns:xlink="http://www.w3.org/1999/xlink" viewBox="0 0 1920 986">
  <defs>
    <style>
      .cls-1 {
        opacity: .6;
      }

      .cls-1, .cls-2, .cls-3, .cls-4 {
        stroke-width: 0px;
      }

      .cls-1, .cls-3 {
        fill: #172d4d;
      }

      .cls-2 {
        fill: none;
      }

      .cls-4 {
        fill: #eee;
        fill-rule: evenodd;
      }
    </style>
  </defs>
  <image width="1914" height="984" transform="" xlink:href="../../Screenshots_Autorentool/Softwarekomponenten/ManualAuthoringArbeitsflächeLernraumEditor.png"/>
  <path class="cls-1" d="M0,0v986h1920V0H0ZM105,30c0,8.3-6.7,15-15,15h-20c-8.3,0-15-6.7-15-15v-14c0-8.3,6.7-15,15-15h20c8.3,0,15,6.7,15,15v14Z"/>
  <g>
    <rect id="PfeilDokumentation" class="cls-2" x="135.6" y="20.8" width="62.7" height="180" transform="translate(-29.6 149.8) rotate(-44.8)"/>
    <g>
      <path class="cls-4" d="M236.4,161.1l-19.7,19.6-97.7-98.4-6.5,6.5-6.4-39.3,39.1,6.7-6.6,6.5,97.8,98.5h0Z"/>
      <path class="cls-3" d="M146.3,55c.2.2.3.4.4.6.2.6,0,1.2-.4,1.6l-5.4,5.4,96.6,97.3c.6.6.6,1.6,0,2.3l-19.7,19.6c-.6.6-1.6.6-2.3,0l-96.6-97.3-5.4,5.4c-.4.4-1.1.6-1.6.4-.6-.2-1-.7-1.1-1.3l-6.4-39.2c0-.5,0-1,.5-1.4s.9-.5,1.4-.4l39.2,6.6c.3,0,.6.2.9.4ZM234.1,161.1l-96.6-97.3c-.6-.6-.6-1.6,0-2.3l4.4-4.3-33.9-5.7,5.5,34,4.4-4.3c.6-.6,1.6-.6,2.3,0l96.6,97.3,17.4-17.3Z"/>
    </g>
  </g>
</svg>