<?xml version="1.0" encoding="UTF-8"?>
<svg id="Ebene_1" data-name="Ebene 1" xmlns="http://www.w3.org/2000/svg" version="1.1" xmlns:xlink="http://www.w3.org/1999/xlink" viewBox="0 0 1920 986">
  <defs>
    <style>
      .cls-1 {
        opacity: .6;
      }

      .cls-1, .cls-2, .cls-3, .cls-4 {
        stroke-width: 0px;
      }

      .cls-1, .cls-3 {
        fill: #172d4d;
      }

      .cls-2 {
        fill: none;
      }

      .cls-4 {
        fill: #eee;
        fill-rule: evenodd;
      }
    </style>
  </defs>
  <image width="1915" height="984" transform="" xlink:href="../../Screenshots_Autorentool/Bedienung/ManualAuthoringLernraumErstellenErfolgreich.png"/>
  <path class="cls-1" d="M0,0v986h1920V0H0ZM1398,761c0,8.3-6.7,15-15,15h-854c-8.3,0-15-6.7-15-15V64c0-8.3,6.7-15,15-15h854c8.3,0,15,6.7,15,15v697ZM1513,281c0,8.3-6.7,15-15,15h-65c-8.3,0-15-6.7-15-15v-68c0-8.3,6.7-15,15-15h65c8.3,0,15,6.7,15,15v68Z"/>
  <g>
    <rect id="PfeilDokumentation" class="cls-2" x="1339.6" y="689.8" width="62.7" height="180" transform="translate(-109 1325.1) rotate(-49.9)"/>
    <g>
      <path class="cls-4" d="M1444.5,823.8l-17.9,21.2-106-89.4-5.9,7-9.9-38.5,39.6,3.2-6,7.1,106.1,89.4h0Z"/>
      <path class="cls-3" d="M1345.5,726.1c.2.2.3.4.4.6.2.6.1,1.2-.3,1.6l-4.9,5.8,104.9,88.4c.7.6.8,1.6.2,2.2l-17.9,21.2c-.6.7-1.6.8-2.2.2l-104.9-88.4-4.9,5.8c-.4.5-1,.7-1.6.5-.6-.1-1-.6-1.2-1.2l-9.8-38.5c-.1-.5,0-1,.3-1.4s.8-.6,1.3-.6l39.6,3.2c.3,0,.7.2.9.4ZM1442.3,824l-104.9-88.4c-.7-.6-.8-1.6-.2-2.2l4-4.7-34.3-2.7,8.5,33.3,4-4.7c.6-.7,1.6-.8,2.2-.2l104.9,88.4,15.8-18.8Z"/>
    </g>
  </g>
  <g>
    <rect id="PfeilDokumentation-2" data-name="PfeilDokumentation" class="cls-2" x="1550.8" y="262.6" width="62.7" height="180" transform="translate(292.6 1334.8) rotate(-49.9)"/>
    <g>
      <path class="cls-4" d="M1655.8,396.6l-17.9,21.2-106-89.4-5.9,7-9.9-38.5,39.6,3.2-6,7.1,106.1,89.4h0Z"/>
      <path class="cls-3" d="M1556.7,298.9c.2.2.3.4.4.6.2.6.1,1.2-.3,1.6l-4.9,5.8,104.9,88.4c.7.6.8,1.6.2,2.2l-17.9,21.2c-.6.7-1.6.8-2.2.2l-104.9-88.4-4.9,5.8c-.4.5-1,.7-1.6.5-.6-.1-1-.6-1.2-1.2l-9.8-38.5c-.1-.5,0-1,.3-1.4s.8-.6,1.3-.6l39.6,3.2c.3,0,.7.2.9.4ZM1653.6,396.8l-104.9-88.4c-.7-.6-.8-1.6-.2-2.2l4-4.7-34.3-2.7,8.5,33.3,4-4.7c.6-.7,1.6-.8,2.2-.2l104.9,88.4,15.8-18.8Z"/>
    </g>
  </g>
</svg>