<?xml version="1.0" encoding="UTF-8"?>
<svg id="Ebene_1" data-name="Ebene 1" xmlns="http://www.w3.org/2000/svg" version="1.1" xmlns:xlink="http://www.w3.org/1999/xlink" viewBox="0 0 1920 986">
  <defs>
    <style>
      .cls-1 {
        opacity: .6;
      }

      .cls-1, .cls-2, .cls-3, .cls-4 {
        stroke-width: 0px;
      }

      .cls-1, .cls-3 {
        fill: #172d4d;
      }

      .cls-2 {
        fill: none;
      }

      .cls-4 {
        fill: #eee;
        fill-rule: evenodd;
      }
    </style>
  </defs>
  <image width="1915" height="984" transform="" xlink:href="../Screenshots_Autorentool/Bedienung/ManualAuthoringLernweltImportierenDateimanager.png"/>
  <path class="cls-1" d="M0,0v986h1920V0H0ZM1465,865c0,8.3-6.7,15-15,15H412c-8.3,0-15-6.7-15-15V74c0-8.3,6.7-15,15-15h1038c8.3,0,15,6.7,15,15v791Z"/>
  <g>
    <rect id="PfeilDokumentation" class="cls-2" x="1151.4" y="703.3" width="62.7" height="180" transform="translate(-145.5 1307.1) rotate(-55)"/>
    <g>
      <path class="cls-4" d="M1105.5,756.1l15.9-22.7,113.6,79.5,5.3-7.5,13.3,37.5-39.7.4,5.3-7.6-113.7-79.6h0Z"/>
      <path class="cls-3" d="M1213,844.5c-.2-.1-.4-.3-.5-.6-.3-.5-.2-1.2.1-1.7l4.4-6.3-112.3-78.7c-.7-.5-.9-1.5-.4-2.2l15.9-22.7c.5-.7,1.5-.9,2.2-.4l112.3,78.7,4.4-6.3c.3-.5.9-.7,1.5-.7.6,0,1.1.5,1.3,1.1l13.2,37.5c.2.5,0,1-.2,1.4s-.8.7-1.3.7l-39.7.4c-.3,0-.7,0-.9-.3ZM1107.7,755.7l112.3,78.7c.7.5.9,1.5.4,2.2l-3.5,5,34.4-.4-11.4-32.5-3.5,5c-.5.7-1.5.9-2.2.4l-112.3-78.7-14.1,20.1Z"/>
    </g>
  </g>
</svg>