<?xml version="1.0" encoding="UTF-8"?>
<svg id="Ebene_1" data-name="Ebene 1" xmlns="http://www.w3.org/2000/svg" viewBox="0 0 2000 2000">
  <defs>
    <style>
      .cls-1 {
        fill: #cfd8e5;
        stroke: #172d4d;
        stroke-linecap: round;
        stroke-linejoin: round;
        stroke-width: 30px;
      }
    </style>
  </defs>
  <path class="cls-1" d="m1713.66,765.16h-23.58c5.59-12.06,3.88-24.85,3.88-24.85l.73-.23c-24.13-363.61-326.7-651.08-696.42-651.08S312.16,389.77,300.62,765.16h-14.28c-39.93,0-72.29,32.37-72.29,72.29v1001.26c0,39.93,32.37,72.29,72.29,72.29h1427.31c39.93,0,72.29-32.37,72.29-72.29v-1001.26c0-39.93-32.37-72.29-72.29-72.29Zm-715.4-501.66c274.05,0,498.91,210.59,521.59,478.78l.37.1s-.11,1.18-.1,3.15c.18,2.28.34,4.56.49,6.84.52,3.81,1.56,8.32,3.55,12.79H475.22c11.44-278.99,241.23-501.66,523.04-501.66Z"/>
</svg>