<?xml version="1.0" encoding="UTF-8"?>
<svg id="Ebene_1" data-name="Ebene 1" xmlns="http://www.w3.org/2000/svg" version="1.1" xmlns:xlink="http://www.w3.org/1999/xlink" viewBox="0 0 1920 986">
  <defs>
    <style>
      .cls-1 {
        opacity: .6;
      }

      .cls-1, .cls-2, .cls-3, .cls-4 {
        stroke-width: 0px;
      }

      .cls-1, .cls-3 {
        fill: #172d4d;
      }

      .cls-2 {
        fill: none;
      }

      .cls-4 {
        fill: #eee;
        fill-rule: evenodd;
      }
    </style>
  </defs>
  <image width="1918" height="985" transform="" xlink:href="../../Screenshots_Autorentool/Bedienung/ManualAuthoringLernweltDateinamenAnzeigenButton.png"/>
  <path class="cls-1" d="M0,0v986h1920V0H0ZM731,254c0,8.3-6.7,15-15,15h-307c-8.3,0-15-6.7-15-15v-49c0-8.3,6.7-15,15-15h307c8.3,0,15,6.7,15,15v49Z"/>
  <g>
    <rect id="PfeilDokumentation" class="cls-2" x="338.9" y="78.4" width="180" height="62.7" transform="translate(317.6 538.3) rotate(-89.8)"/>
    <g>
      <path class="cls-4" d="M415.4,25.1h27.7c0,.1-.5,138.8-.5,138.8h9.2s-23.2,32.4-23.2,32.4l-23-32.4h9.2s.5-138.7.5-138.7h0Z"/>
      <path class="cls-3" d="M404,163.8c0-.3,0-.5.2-.7.3-.5.8-.9,1.4-.9h7.7s.5-137.1.5-137.1c0-.9.7-1.6,1.6-1.6h27.7c.9.1,1.6.8,1.6,1.7l-.5,137.2h7.7c.6,0,1.1.4,1.4.9.3.5.2,1.2-.1,1.7l-23.2,32.2c-.3.4-.8.7-1.3.7s-1-.3-1.3-.7l-23-32.4c-.2-.3-.3-.6-.3-.9ZM417,26.7l-.5,137.2c0,.9-.7,1.6-1.6,1.6h-6.2s19.9,28,19.9,28l20.1-27.9h-6.1c-.9,0-1.6-.7-1.6-1.6l.5-137.2h-24.6Z"/>
    </g>
  </g>
</svg>