<?xml version="1.0" encoding="UTF-8"?>
<svg id="Ebene_1" data-name="Ebene 1" xmlns="http://www.w3.org/2000/svg" version="1.1" xmlns:xlink="http://www.w3.org/1999/xlink" viewBox="0 0 1920 986">
  <defs>
    <style>
      .cls-1 {
        opacity: .6;
      }

      .cls-1, .cls-2, .cls-3, .cls-4 {
        stroke-width: 0px;
      }

      .cls-1, .cls-3 {
        fill: #172d4d;
      }

      .cls-2 {
        fill: none;
      }

      .cls-4 {
        fill: #eee;
        fill-rule: evenodd;
      }
    </style>
  </defs>
  <image width="1918" height="984" transform="translate(0 1)" xlink:href="../Screenshots_Autorentool/Bedienung/ManualAuthoringLernweltSortierenAlphaNumerisch.png"/>
  <path class="cls-1" d="M-1,0v986h1921V0H-1ZM355,238c0,8.3-6.7,15-15,15h-15c-8.3,0-15-6.7-15-15v-23c0-8.3,6.7-15,15-15h15c8.3,0,15,6.7,15,15v23Z"/>
  <g>
    <rect id="PfeilDokumentation" class="cls-2" x="204.6" y="51.4" width="62.7" height="180" transform="translate(-21.2 238.8) rotate(-51.7)"/>
    <g>
      <path class="cls-4" d="M161,99.7l17.2-21.8,108.8,86,5.7-7.2,11.1,38.2-39.7-1.9,5.7-7.2-108.9-86h0Z"/>
      <path class="cls-3" d="M263.1,194.3c-.2-.2-.4-.4-.5-.6-.3-.5-.2-1.2.2-1.6l4.7-6-107.6-85.1c-.7-.5-.8-1.5-.3-2.2l17.2-21.8c.5-.7,1.5-.8,2.2-.3l107.6,85.1,4.7-6c.4-.5,1-.7,1.6-.6.6.1,1.1.5,1.2,1.1l11,38.2c.1.5,0,1-.3,1.4s-.8.6-1.3.6l-39.7-1.9c-.3,0-.7-.1-.9-.3ZM163.2,99.5l107.6,85.1c.7.5.8,1.5.3,2.2l-3.8,4.8,34.4,1.6-9.5-33.1-3.8,4.8c-.5.7-1.5.8-2.2.3l-107.6-85.1-15.2,19.3Z"/>
    </g>
  </g>
</svg>