<?xml version="1.0" encoding="UTF-8"?>
<svg id="Ebene_1" data-name="Ebene 1" xmlns="http://www.w3.org/2000/svg" version="1.1" xmlns:xlink="http://www.w3.org/1999/xlink" viewBox="0 0 1920 986">
  <defs>
    <style>
      .cls-1 {
        fill: none;
      }

      .cls-1, .cls-2, .cls-3 {
        stroke-width: 0px;
      }

      .cls-2 {
        fill: #172d4d;
      }

      .cls-3 {
        fill: #eee;
        fill-rule: evenodd;
      }
    </style>
  </defs>
  <g>
    <rect id="PfeilDokumentation" class="cls-1" x="64.3" y="2.4" width="717.5" height="250"/>
    <g>
      <path class="cls-3" d="M85.6,182.5v-110.6h552.7v-36.6l129.2,92-128.8,92v-36.8H85.6Z"/>
      <path class="cls-2" d="M638.6,225.7c-1,0-2-.2-2.9-.7-2.1-1.1-3.4-3.3-3.4-5.7v-30.5H85.6c-3.5,0-6.4-2.8-6.4-6.4v-110.6c0-3.5,2.8-6.4,6.4-6.4h546.7v-30.5c0-2.4,1.3-4.6,3.4-5.7,2.1-1.1,4.7-.9,6.6.5l128.8,92.1c1.7,1.2,2.7,3.1,2.7,5.2s-1,4-2.7,5.2l-128.8,92.2c-1.1.8-2.4,1.2-3.7,1.2ZM91.9,176.1h546.7c3.5,0,6.4,2.8,6.4,6.4v24.5l111.5-79.8-111.5-79.8v24.5c0,3.5-2.8,6.4-6.4,6.4H91.9v97.9Z"/>
    </g>
  </g>
  <image width="1918" height="984" transform="translate(0 1)" xlink:href="../Screenshots_Autorentool/Bedienung/ManualAuthoringLernweltErstellen.png"/>
</svg>