<?xml version="1.0" encoding="UTF-8"?>
<svg id="Ebene_1" data-name="Ebene 1" xmlns="http://www.w3.org/2000/svg" version="1.1" xmlns:xlink="http://www.w3.org/1999/xlink" viewBox="0 0 1920 986">
  <defs>
    <style>
      .cls-1 {
        opacity: .6;
      }

      .cls-1, .cls-2, .cls-3, .cls-4 {
        stroke-width: 0px;
      }

      .cls-1, .cls-3 {
        fill: #172d4d;
      }

      .cls-2 {
        fill: none;
      }

      .cls-4 {
        fill: #eee;
        fill-rule: evenodd;
      }
    </style>
  </defs>
  <image width="1918" height="985" transform="" xlink:href="../../Screenshots_Autorentool/Bedienung/ManualAuthoringUnplatzierteStoryelementeZiehen.png"/>
  <path class="cls-1" d="M0,0v986h1920V0H0ZM1034,756c0,8.3-6.7,15-15,15h-96c-8.3,0-15-6.7-15-15v-37c0-8.3,6.7-15,15-15h96c8.3,0,15,6.7,15,15v37ZM1384,918c0,8.3-6.7,15-15,15h-96c-8.3,0-15-6.7-15-15v-54c0-8.3,6.7-15,15-15h96c8.3,0,15,6.7,15,15v54Z"/>
  <g>
    <rect id="PfeilDokumentation" class="cls-2" x="1112.4" y="717.1" width="51.3" height="147.3" transform="translate(-108.1 1396.9) rotate(-60.7)"/>
    <g>
      <path class="cls-4" d="M1204,814.7l-11.1,19.8-99-55.4-3.7,6.6-13.9-29.4,32.3-3.6-3.7,6.6,99,55.5h0Z"/>
      <path class="cls-3" d="M1109.3,751.5c.2.1.3.2.5.4.3.4.3.9,0,1.4l-3.1,5.5,97.9,54.8c.6.4.9,1.1.5,1.8l-11.1,19.8c-.4.6-1.1.9-1.8.5l-97.9-54.8-3.1,5.5c-.2.4-.7.7-1.2.7-.5,0-.9-.3-1.1-.8l-13.8-29.4c-.2-.4-.2-.8,0-1.2s.6-.6,1-.7l32.3-3.6c.3,0,.5,0,.8.2ZM1202.2,815.2l-97.9-54.8c-.6-.4-.9-1.1-.5-1.8l2.5-4.4-28,3.1,12,25.5,2.5-4.4c.4-.6,1.1-.9,1.8-.5l97.9,54.8,9.8-17.5Z"/>
    </g>
  </g>
</svg>