<?xml version="1.0" encoding="UTF-8"?>
<svg id="Ebene_1" data-name="Ebene 1" xmlns="http://www.w3.org/2000/svg" version="1.1" xmlns:xlink="http://www.w3.org/1999/xlink" viewBox="0 0 1920 986">
  <defs>
    <style>
      .cls-1 {
        opacity: .6;
      }

      .cls-1, .cls-2, .cls-3, .cls-4 {
        stroke-width: 0px;
      }

      .cls-1, .cls-3 {
        fill: #172d4d;
      }

      .cls-2 {
        fill: none;
      }

      .cls-4 {
        fill: #eee;
        fill-rule: evenodd;
      }
    </style>
  </defs>
  <image width="1917" height="985" transform="translate(0 1)" xlink:href="../Screenshots_Autorentool/Softwarekomponenten/ManualAuthoringStartseite2.png"/>
  <path class="cls-1" d="M0,0v986h1920V0H0ZM1126,145c0,8.3-6.7,15-15,15h-139c-8.3,0-15-6.7-15-15v-35c0-8.3,6.7-15,15-15h139c8.3,0,15,6.7,15,15v35Z"/>
  <g>
    <rect id="PfeilDokumentation" class="cls-2" x="1154.8" y="97.9" width="180" height="62.7"/>
    <g>
      <path class="cls-4" d="M1329.5,115.5v27.8h-138.7v9.2l-32.4-23.1,32.3-23.1v9.2h138.8Z"/>
      <path class="cls-3" d="M1190.7,104.6c.3,0,.5,0,.7.2.5.3.9.8.9,1.4v7.7h137.2c.9,0,1.6.7,1.6,1.6v27.8c0,.9-.7,1.6-1.6,1.6h-137.2v7.7c0,.6-.3,1.1-.9,1.4-.5.3-1.2.2-1.7-.1l-32.3-23.1c-.4-.3-.7-.8-.7-1.3s.3-1,.7-1.3l32.3-23.1c.3-.2.6-.3.9-.3ZM1327.9,117.1h-137.2c-.9,0-1.6-.7-1.6-1.6v-6.2l-28,20,28,20v-6.1c0-.9.7-1.6,1.6-1.6h137.2v-24.6Z"/>
    </g>
  </g>
</svg>