<?xml version="1.0" encoding="utf-8"?>
<!-- Generator: Adobe Illustrator 27.9.4, SVG Export Plug-In . SVG Version: 9.03 Build 54784)  -->
<svg version="1.1"
	 id="svg1" xmlns:svg="http://www.w3.org/2000/svg" xmlns:sodipodi="http://sodipodi.sourceforge.net/DTD/sodipodi-0.dtd" xmlns:inkscape="http://www.inkscape.org/namespaces/inkscape"
	 xmlns="http://www.w3.org/2000/svg" xmlns:xlink="http://www.w3.org/1999/xlink" x="0px" y="0px" viewBox="0 0 305 269"
	 style="enable-background:new 0 0 305 269;" xml:space="preserve">
<style type="text/css">
	.st0{opacity:0.6;fill:#172D4D;}
</style>
<sodipodi:namedview  bordercolor="#eeeeee" borderopacity="1" id="namedview1" inkscape:deskcolor="#505050" inkscape:pagecheckerboard="0" inkscape:pageopacity="0" inkscape:showpageshadow="0" pagecolor="#505050">
	</sodipodi:namedview>
<image style="overflow:visible;" width="266" height="222" xlink:href="../../Screenshots_Autorentool/Bedienung/ManualAuthoringLernraumPfadBedingungAuswahl.png"  transform="matrix(1.1466 0 0 1.2117 0 0)">
</image>
<g>
	<path class="st0" d="M0,0v269h305V0H0z M186.6,143.3C186.6,143.3,186.6,143.3,186.6,143.3L186.6,143.3c0,5-4,9-8.9,9H108
		c-0.3,0-0.6,0-0.9-0.1c-4.7-0.3-8.4-4.2-8.4-8.9v-34.7c0-4.9,4-8.9,8.9-8.9h0.4h2.8h63.1h3.8c4.9,0,8.9,4,8.9,8.9V143.3z"/>
	<polygon class="st0" points="164.1,108.6 121.2,108.6 110.8,119 110.8,132.6 121.5,143.3 164.8,143.3 173.9,134.3 173.9,118.4 	"/>
</g>
</svg>
