<?xml version="1.0" encoding="UTF-8"?>
<svg id="Ebene_1" data-name="Ebene 1" xmlns="http://www.w3.org/2000/svg" version="1.1" xmlns:xlink="http://www.w3.org/1999/xlink" viewBox="0 0 1920 986">
  <defs>
    <style>
      .cls-1 {
        opacity: .6;
      }

      .cls-1, .cls-2, .cls-3, .cls-4 {
        stroke-width: 0px;
      }

      .cls-1, .cls-3 {
        fill: #172d4d;
      }

      .cls-2 {
        fill: none;
      }

      .cls-4 {
        fill: #eee;
        fill-rule: evenodd;
      }
    </style>
  </defs>
  <image width="1916" height="985" transform="" xlink:href="../../Screenshots_Autorentool/Bedienung/ManualAuthoringLernraumErstellenGrundrisse.png"/>
  <path class="cls-1" d="M0,0v77c0-8.3,6.7-15,15-15h22c8.3,0,15,6.7,15,15v23c0,8.3-6.7,15-15,15H15c-8.3,0-15-6.7-15-15v886h1920V0H0Z"/>
  <g>
    <rect id="PfeilDokumentation" class="cls-2" x="112.2" y="52.2" width="62.7" height="180" transform="translate(-51.8 193.9) rotate(-59.6)"/>
    <g>
      <path class="cls-4" d="M223.6,173.2l-14.1,23.9-119.5-70.3-4.7,7.9-16.2-36.3,39.5-3.5-4.7,8,119.6,70.3h0Z"/>
      <path class="cls-3" d="M109.4,93.5c.2.1.4.3.5.5.3.5.3,1.1,0,1.7l-3.9,6.6,118.2,69.5c.8.4,1,1.4.6,2.2l-14.1,23.9c-.4.8-1.4,1-2.2.6l-118.2-69.5-3.9,6.6c-.3.5-.9.8-1.5.8-.6,0-1.1-.4-1.4-.9l-16.2-36.3c-.2-.5-.2-1,0-1.5s.7-.7,1.2-.8l39.6-3.6c.3,0,.7,0,1,.2ZM221.4,173.7l-118.2-69.5c-.8-.4-1-1.4-.6-2.2l3.1-5.3-34.3,3.1,14,31.4,3.1-5.3c.4-.8,1.4-1,2.2-.6l118.2,69.5,12.4-21.2Z"/>
    </g>
  </g>
</svg>