<?xml version="1.0" encoding="UTF-8"?>
<svg id="Ebene_1" data-name="Ebene 1" xmlns="http://www.w3.org/2000/svg" version="1.1" xmlns:xlink="http://www.w3.org/1999/xlink" viewBox="0 0 1920 986">
  <defs>
    <style>
      .cls-1 {
        fill: #172d4d;
        opacity: .6;
        stroke-width: 0px;
      }
    </style>
  </defs>
  <image width="1916" height="985" transform="" xlink:href="../../Screenshots_Autorentool/Bedienung/ManualAuthoringAdaptivitaetselementErstellen3DDarstellung.png"/>
  <image width="1917" height="986" transform="" xlink:href="../../Screenshots_Autorentool/Bedienung/ManualAuthoringAdaptivitaetselementErstellen3DDarstellungHover.png"/>
  <path class="cls-1" d="M0,0v986h1920V0H0ZM491,623c0,8.3-6.7,15-15,15h-70v66c0,8.3-6.7,15-15,15h-218c-8.3,0-15-6.7-15-15v-66h-76c-8.3,0-15-6.7-15-15v-94c0-8.3,6.7-15,15-15h76v-54c0-8.3,6.7-15,15-15h218c8.3,0,15,6.7,15,15v54h70c8.3,0,15,6.7,15,15v94Z"/>
</svg>