<?xml version="1.0" encoding="UTF-8"?>
<svg id="Ebene_1" data-name="Ebene 1" xmlns="http://www.w3.org/2000/svg" version="1.1" xmlns:xlink="http://www.w3.org/1999/xlink" viewBox="0 0 1920 986">
  <defs>
    <style>
      .cls-1 {
        opacity: .6;
      }

      .cls-1, .cls-2, .cls-3, .cls-4 {
        stroke-width: 0px;
      }

      .cls-1, .cls-3 {
        fill: #172d4d;
      }

      .cls-2 {
        fill: none;
      }

      .cls-4 {
        fill: #eee;
        fill-rule: evenodd;
      }
    </style>
  </defs>
  <image width="1916" height="985" transform="" xlink:href="../../Screenshots_Autorentool/Bedienung/ManualAuthoringUnplatzierteElementeFiltern.png"/>
  <path class="cls-1" d="M1919.8-.8L0,0l.4,986.4,1919.8-.8-.4-986.4ZM701,851.8l-164,.4c-8.3,0-15-6.7-15-15v-6.5c0-8.3,6.7-15,15-15l164-.4c8.3,0,15,6.7,15,15v6.5c0,8.3-6.7,15-15,15Z"/>
  <g>
    <rect id="PfeilDokumentation" class="cls-2" x="600.6" y="699.8" width="180" height="62.7" transform="translate(-45.4 1416.5) rotate(-89.6)"/>
    <g>
      <path class="cls-4" d="M677.3,646.4l27.7.2-1,138.7h9.2c0,0-23.3,32.3-23.3,32.3l-22.9-32.5h9.2c0,0,1-138.7,1-138.7h0Z"/>
      <path class="cls-3" d="M665.5,785c0-.3,0-.5.2-.7.3-.5.8-.9,1.4-.9h7.7c0,0,1-137.1,1-137.1,0-.9.7-1.6,1.6-1.6l27.7.2c.9,0,1.6.7,1.6,1.6l-1,137.2h7.7c.6,0,1.1.4,1.4.9.3.5.2,1.2-.1,1.7l-23.3,32.2c-.3.4-.8.7-1.3.7s-1-.3-1.3-.7l-22.9-32.5c-.2-.3-.3-.6-.3-.9ZM678.9,648l-1,137.2c0,.9-.7,1.6-1.6,1.6h-6.2s19.8,28.1,19.8,28.1l20.2-27.8h-6.1c-.9,0-1.6-.8-1.6-1.6l1-137.2-24.6-.2Z"/>
    </g>
  </g>
</svg>