<?xml version="1.0" encoding="UTF-8"?>
<svg id="uuid-7581315e-e996-4117-946c-9564525a8c90" data-name="Ebene 1" xmlns="http://www.w3.org/2000/svg" xmlns:xlink="http://www.w3.org/1999/xlink" viewBox="0 0 1920 1311">
  <image width="1916" height="984" transform="translate(0 175)" xlink:href="../Screenshots_Autorentool/ManualAuthoringExternesLernmaterial.png"/>
  <path d="m0,175v56.65c2.16-5.64,7.61-9.65,14.01-9.65h475.25c8.29,0,15.01,6.72,15.01,15v897c0,8.28-6.72,15-15.01,15H14.01c-6.4,0-11.85-4.01-14.01-9.65v21.65h1920V175H0Z" style="fill: #172d4d; opacity: .6; stroke-width: 0px;"/>
  <g>
    <polygon points="106 378.5 105.5 378 105.5 68.5 106 68 109 68 109.5 68.5 109.5 378 109 378.5 106 378.5" style="stroke-width: 0px;"/>
    <path d="m109,68.5v309.5h-3V68.5h3m0-1h-3l-1,1v309.5l1,1h3l1-1V68.5l-1-1h0Z" style="fill: #fff; stroke-width: 0px;"/>
  </g>
  <g>
    <polygon points="269.5 256.5 269 256 269 68 269.5 67.5 272.5 67.5 273 68 273 256 272.5 256.5 269.5 256.5" style="stroke-width: 0px;"/>
    <path d="m272.5,68v188h-3V68h3m0-1h-3l-1,1v188l1,1h3l1-1V68l-1-1h0Z" style="fill: #fff; stroke-width: 0px;"/>
  </g>
  <g>
    <polygon points="483.45 316.95 483.28 316.26 591 132.9 591 64 591.5 63.5 594.5 63.5 595 64 595 133.85 594.93 134.11 486.72 318.29 486.04 318.47 483.45 316.95" style="stroke-width: 0px;"/>
    <path d="m594.5,64v69.85l-108.21,184.18-2.59-1.52,107.79-183.48v-69.04h3m0-1h-3l-1,1v68.77l-107.66,183.24.36,1.37,2.59,1.52,1.37-.36,108.21-184.18.14-.51v-69.85l-1-1h0Z" style="fill: #fff; stroke-width: 0px;"/>
  </g>
  <g>
    <path d="m450.63,514.07c-83.94,0-140-16.77-140.56-16.94l-.33-.62.87-2.87.62-.33c.55.17,56.23,16.77,139.38,16.77,5.43,0,10.92-.07,16.34-.21,85.03-2.22,213.01-23.46,339.9-111.99l.7.12,1.72,2.46-.12.7c-56.4,39.36-117.73,68.9-182.29,87.8-51.64,15.12-105.45,23.5-159.92,24.92-5.42.14-10.91.21-16.31.21Z" style="stroke-width: 0px;"/>
    <path d="m807.14,398.27l1.72,2.46c-56.36,39.33-117.64,68.84-182.14,87.73-51.6,15.11-105.36,23.49-159.79,24.9-5.54.14-10.98.21-16.3.21-83.75,0-139.82-16.74-140.41-16.92l.87-2.87c.59.18,56.27,16.79,139.52,16.79,5.34,0,10.8-.07,16.36-.21,85.09-2.23,213.19-23.48,340.17-112.08m-.57-.82c-126.78,88.46-254.67,109.68-339.63,111.9-5.42.14-10.91.21-16.33.21-83.08,0-138.68-16.58-139.23-16.75l-1.25.67-.87,2.87.67,1.25c.56.17,56.68,16.96,140.7,16.96,5.41,0,10.9-.07,16.33-.21,54.52-1.42,108.36-9.81,160.05-24.94,64.6-18.92,125.98-48.48,182.43-87.87l.25-1.39-1.72-2.46-1.39-.25h0Z" style="fill: #fff; stroke-width: 0px;"/>
  </g>
  <g>
    <path d="m807.06,736.43c-14.57-30.4-49.68-61.82-104.37-93.38-43.94-25.35-100.48-50.81-168.05-75.66-114.85-42.23-223.8-68.54-224.88-68.8l-.37-.6.7-2.92.6-.37c1.08.26,109.65,26.41,225.3,68.93,67.79,24.93,124.55,50.48,168.69,75.95,55.41,31.97,91.06,63.97,105.99,95.12l-.23.67-2.71,1.3-.67-.24Z" style="stroke-width: 0px;"/>
    <path d="m310.57,495.19c1.09.26,109.92,26.51,225.25,68.91,67.77,24.92,124.5,50.46,168.61,75.91,55.32,31.92,90.91,63.85,105.79,94.91l-2.71,1.3c-14.61-30.5-49.79-61.99-104.57-93.6-43.96-25.37-100.53-50.84-168.13-75.69-115.17-42.35-223.85-68.56-224.94-68.82l.7-2.92m.23-.97l-1.21.74-.7,2.92.74,1.21c1.09.26,110.03,26.58,224.83,68.79,67.55,24.84,124.06,50.28,167.98,75.62,54.6,31.51,89.65,62.85,104.17,93.16l1.33.47,2.71-1.3.47-1.33c-14.97-31.24-50.69-63.32-106.19-95.34-44.16-25.48-100.95-51.05-168.77-75.99-115.75-42.56-224.28-68.69-225.36-68.95h0Z" style="fill: #fff; stroke-width: 0px;"/>
  </g>
  <rect x="798.5" y="396.5" width="515" height="340" rx="15" ry="15" style="fill: #fff; stroke: #000; stroke-miterlimit: 10; stroke-width: 3px;"/>
  <image width="430" height="265" transform="translate(808 417) scale(1.15)" xlink:href="../Screenshots_Autorentool/ManualAuthoringExternesLernmaterialLink.png"/>
  <g>
    <polygon points="1137.5 1243.5 1137 1243 1137 616 1137.5 615.5 1140.5 615.5 1141 616 1141 1243 1140.5 1243.5 1137.5 1243.5" style="stroke-width: 0px;"/>
    <path d="m1140.5,616v627h-3v-627h3m0-1h-3l-1,1v627l1,1h3l1-1v-627l-1-1h0Z" style="fill: #fff; stroke-width: 0px;"/>
  </g>
  <g>
    <polygon points="1238.5 1247.5 1238 1247 1238 686 1238.5 685.5 1241.5 685.5 1242 686 1242 1247 1241.5 1247.5 1238.5 1247.5" style="stroke-width: 0px;"/>
    <path d="m1241.5,686v561h-3v-561h3m0-1h-3l-1,1v561l1,1h3l1-1v-561l-1-1h0Z" style="fill: #fff; stroke-width: 0px;"/>
  </g>
  <g>
    <polygon points="1028 1243.5 1027.5 1243 1027.5 547 1028 546.5 1031 546.5 1031.5 547 1031.5 1243 1031 1243.5 1028 1243.5" style="stroke-width: 0px;"/>
    <path d="m1031,547v696h-3v-696h3m0-1h-3l-1,1v696l1,1h3l1-1v-696l-1-1h0Z" style="fill: #fff; stroke-width: 0px;"/>
  </g>
  <g>
    <g>
      <circle cx="595" cy="35" r="32" style="fill: #fff; stroke-width: 0px;"/>
      <path d="m595,69c-18.75,0-34-15.25-34-34s15.25-34,34-34,34,15.25,34,34-15.25,34-34,34Zm0-64c-16.54,0-30,13.46-30,30s13.46,30,30,30,30-13.46,30-30-13.46-30-30-30Z" style="stroke-width: 0px;"/>
    </g>
    <path d="m591.27,33.08h2.71c1.29,0,2.24-.32,2.87-.97s.93-1.5.93-2.57-.31-1.83-.92-2.41-1.46-.86-2.54-.86c-.97,0-1.79.27-2.44.8s-.98,1.23-.98,2.08h-5.08c0-1.34.36-2.53,1.08-3.59s1.73-1.89,3.02-2.49,2.72-.9,4.28-.9c2.71,0,4.83.65,6.36,1.94s2.3,3.08,2.3,5.35c0,1.17-.36,2.25-1.07,3.23s-1.65,1.74-2.81,2.27c1.44.52,2.52,1.29,3.23,2.32s1.06,2.25,1.06,3.66c0,2.27-.83,4.1-2.49,5.47s-3.85,2.06-6.58,2.06c-2.55,0-4.64-.67-6.27-2.02s-2.43-3.13-2.43-5.34h5.08c0,.96.36,1.75,1.08,2.36s1.61.91,2.66.91c1.21,0,2.15-.32,2.84-.96s1.03-1.49,1.03-2.54c0-2.55-1.41-3.83-4.22-3.83h-2.69v-3.97Z" style="stroke-width: 0px;"/>
  </g>
  <g>
    <g>
      <circle cx="271" cy="34" r="32" style="fill: #fff; stroke-width: 0px;"/>
      <path d="m271,68c-18.75,0-34-15.25-34-34S252.25,0,271,0s34,15.25,34,34-15.25,34-34,34Zm0-64c-16.54,0-30,13.46-30,30s13.46,30,30,30,30-13.46,30-30-13.46-30-30-30Z" style="stroke-width: 0px;"/>
    </g>
    <path d="m278.65,47.12h-17.54v-3.48l8.28-8.82c1.14-1.24,1.98-2.33,2.52-3.25s.82-1.8.82-2.64c0-1.14-.29-2.03-.86-2.68s-1.39-.98-2.46-.98c-1.15,0-2.05.4-2.72,1.19s-.99,1.83-.99,3.12h-5.1c0-1.56.37-2.98,1.12-4.27s1.8-2.3,3.16-3.03,2.9-1.1,4.62-1.1c2.64,0,4.68.63,6.14,1.9s2.19,3.05,2.19,5.36c0,1.27-.33,2.55-.98,3.87s-1.78,2.84-3.38,4.59l-5.82,6.13h11v4.1Z" style="stroke-width: 0px;"/>
  </g>
  <g>
    <g>
      <circle cx="107.5" cy="34.5" r="32" style="fill: #fff; stroke-width: 0px;"/>
      <path d="m107.5,68.5c-18.75,0-34-15.25-34-34S88.75.5,107.5.5s34,15.25,34,34-15.25,34-34,34Zm0-64c-16.54,0-30,13.46-30,30s13.46,30,30,30,30-13.46,30-30-13.46-30-30-30Z" style="stroke-width: 0px;"/>
    </g>
    <path d="m110.95,47.62h-5.08v-19.61l-6.06,1.87v-4.1l10.6-3.8h.54v25.63Z" style="stroke-width: 0px;"/>
  </g>
  <g>
    <g>
      <circle cx="1240" cy="1277" r="32" style="fill: #fff; stroke-width: 0px;"/>
      <path d="m1240,1311c-18.75,0-34-15.25-34-34s15.25-34,34-34,34,15.25,34,34-15.25,34-34,34Zm0-64c-16.54,0-30,13.46-30,30s13.46,30,30,30,30-13.46,30-30-13.46-30-30-30Z" style="stroke-width: 0px;"/>
    </g>
    <path d="m1243.89,1264.26v4.18h-.49c-2.3.04-4.14.63-5.54,1.79s-2.24,2.77-2.52,4.83c1.36-1.38,3.08-2.07,5.15-2.07,2.23,0,4,.8,5.31,2.39s1.97,3.69,1.97,6.29c0,1.66-.36,3.17-1.08,4.52s-1.74,2.4-3.06,3.15-2.81,1.12-4.47,1.12c-2.7,0-4.87-.94-6.53-2.81s-2.49-4.38-2.49-7.51v-1.83c0-2.78.53-5.23,1.57-7.36s2.55-3.77,4.52-4.94,4.24-1.75,6.83-1.77h.84Zm-4.96,12.83c-.82,0-1.56.21-2.23.64s-1.16.99-1.48,1.69v1.54c0,1.7.33,3.02,1,3.97s1.61,1.43,2.81,1.43c1.09,0,1.97-.43,2.65-1.29.67-.86,1.01-1.97,1.01-3.34s-.34-2.51-1.02-3.37c-.68-.85-1.59-1.28-2.74-1.28Z" style="stroke-width: 0px;"/>
  </g>
  <g>
    <g>
      <circle cx="1030" cy="1277" r="32" style="fill: #fff; stroke-width: 0px;"/>
      <path d="m1030,1311c-18.75,0-34-15.25-34-34s15.25-34,34-34,34,15.25,34,34-15.25,34-34,34Zm0-64c-16.54,0-30,13.46-30,30s13.46,30,30,30,30-13.46,30-30-13.46-30-30-30Z" style="stroke-width: 0px;"/>
    </g>
    <path d="m1033.13,1279.49h2.9v4.1h-2.9v5.54h-5.08v-5.54h-10.49l-.23-3.2,10.67-16.86h5.13v15.96Zm-10.74,0h5.66v-9.04l-.33.58-5.33,8.46Z" style="stroke-width: 0px;"/>
  </g>
  <g>
    <g>
      <circle cx="1139" cy="1277" r="32" style="fill: #fff; stroke-width: 0px;"/>
      <path d="m1139,1311c-18.75,0-34-15.25-34-34s15.25-34,34-34,34,15.25,34,34-15.25,34-34,34Zm0-64c-16.54,0-30,13.46-30,30s13.46,30,30,30,30-13.46,30-30-13.46-30-30-30Z" style="stroke-width: 0px;"/>
    </g>
    <path d="m1131.86,1276.54l1.48-13.01h14.34v4.24h-10.18l-.63,5.5c1.21-.64,2.49-.97,3.85-.97,2.44,0,4.35.76,5.73,2.27s2.07,3.63,2.07,6.35c0,1.65-.35,3.13-1.05,4.44s-1.7,2.32-3,3.04-2.84,1.08-4.61,1.08c-1.55,0-2.98-.31-4.31-.94s-2.37-1.51-3.14-2.65-1.17-2.43-1.22-3.88h5.03c.11,1.07.48,1.9,1.12,2.49s1.47.89,2.5.89c1.15,0,2.03-.41,2.65-1.24s.93-2,.93-3.51-.36-2.57-1.07-3.34-1.73-1.16-3.04-1.16c-1.21,0-2.19.32-2.94.95l-.49.46-4.04-1Z" style="stroke-width: 0px;"/>
  </g>
</svg>