<?xml version="1.0" encoding="UTF-8"?>
<svg id="Ebene_1" data-name="Ebene 1" xmlns="http://www.w3.org/2000/svg" version="1.1" xmlns:xlink="http://www.w3.org/1999/xlink" viewBox="0 0 1920 986">
  <defs>
    <style>
      .cls-1 {
        fill: #2b2a33;
      }

      .cls-1, .cls-2 {
        stroke-width: 0px;
      }

      .cls-2 {
        fill: #172d4d;
        opacity: .6;
      }
    </style>
  </defs>
  <image width="1917" height="983" transform="" xlink:href="../../Screenshots_Autorentool/Bedienung/ManualAuthoringAllgemeinesFeedbackButton.png"/>
  <path class="cls-2" d="M1808.9,1c8.3,0,15,6.7,15,15v17c0,8.3-6.7,15-15,15h-24c-8.3,0-15-6.7-15-15V16c0-8.3,6.7-15,15-15H0v985h1920V1h-111.1ZM1809,153c0,8.3-6.7,15-15,15h-194c-8.3,0-15-6.7-15-15v-20c0-8.3,6.7-15,15-15h194c8.3,0,15,6.7,15,15v20Z"/>
  <image width="1255" height="698" transform="translate(179 65) scale(1.3)" xlink:href="../../Screenshots_Autorentool/Bedienung/ManualAuthoringAllgemeinesFeedback.png"/>
  <rect class="cls-1" x="187" y="171" width="1592" height="26"/>
</svg>