<?xml version="1.0" encoding="UTF-8"?>
<svg id="Ebene_1" data-name="Ebene 1" xmlns="http://www.w3.org/2000/svg" version="1.1" xmlns:xlink="http://www.w3.org/1999/xlink" viewBox="0 0 1920 986">
  <defs>
    <style>
      .cls-1 {
        opacity: .6;
      }

      .cls-1, .cls-2, .cls-3, .cls-4 {
        stroke-width: 0px;
      }

      .cls-1, .cls-3 {
        fill: #172d4d;
      }

      .cls-2 {
        fill: none;
      }

      .cls-4 {
        fill: #eee;
        fill-rule: evenodd;
      }
    </style>
  </defs>
  <image width="1917" height="985" transform="" xlink:href="../../Screenshots_Autorentool/Bedienung/ManualAuthoringUnplatzierteElementeZiehenSlot.png"/>
  <path class="cls-1" d="M0,0v986h1920V0H0ZM1105,630c0-8.3,6.7-15,15-15h102c8.3,0,15,6.7,15,15v53c0,8.3-6.7,15-15,15h-102c-8.3,0-15-6.7-15-15v-53ZM1389.8,922.9c0,8.3-6.7,15-15,15h-826.7c-8.3,0-15-6.7-15-15v-53.1c0-8.3,6.7-15,15-15h826.7c8.3,0,15,6.7,15,15v53.1Z"/>
  <g>
    <rect id="PfeilDokumentation" class="cls-2" x="1219.4" y="708.1" width="51.3" height="147.3" transform="translate(-213.9 601.1) rotate(-25.1)"/>
    <g>
      <path class="cls-4" d="M1205.4,723.8l20.6-9.6,48.1,102.7,6.8-3.2-5.9,32-28.3-15.9,6.8-3.2-48.1-102.8h0Z"/>
      <path class="cls-3" d="M1245.5,830.3c0-.2-.1-.4-.1-.6,0-.5.3-.9.8-1.1l5.7-2.7-47.5-101.6c-.3-.7,0-1.4.6-1.7l20.6-9.6c.7-.3,1.4,0,1.7.6l47.5,101.6,5.7-2.7c.4-.2,1-.1,1.3.1.4.3.6.8.5,1.3l-5.9,32c0,.4-.3.8-.7.9s-.8.2-1.2,0l-28.3-15.9c-.2-.1-.4-.3-.5-.6ZM1207.2,724.4l47.5,101.6c.3.7,0,1.4-.6,1.7l-4.6,2.1,24.5,13.8,5.1-27.7-4.6,2.1c-.7.3-1.4,0-1.7-.6l-47.5-101.6-18.2,8.5Z"/>
    </g>
  </g>
</svg>