<?xml version="1.0" encoding="UTF-8"?>
<svg id="Ebene_1" data-name="Ebene 1" xmlns="http://www.w3.org/2000/svg" version="1.1" xmlns:xlink="http://www.w3.org/1999/xlink" viewBox="0 0 1920 986">
  <defs>
    <style>
      .cls-1 {
        fill: #172d4d;
        opacity: .6;
        stroke-width: 0px;
      }
    </style>
  </defs>
  <image width="1918" height="984" transform="translate(.1 -.2) rotate(0)" xlink:href="../../Screenshots_Autorentool/Bedienung/ManualAuthoringHilfeMenue.png"/>
  <path class="cls-1" d="M1808.9,0c8.3,0,15,6.7,15,15v17c0,8.3-6.7,15-15,15h-2.8c2.4,2.7,3.8,6.2,3.8,10v178c0,8.3-6.7,15-15,15h-197.2c-8.3,0-15-6.7-15-15V57c0-8.3,6.7-15,15-15h176c-2.4-2.7-3.8-6.2-3.8-10V15c0-8.3,6.7-15,15-15H0v986h1920V0h-111.1Z"/>
</svg>